# ProBuilder 4.4.0
# https://unity3d.com/unity/features/worldbuilding/probuilder
# 1/30/2021 3:40:34 AM

mtllib ./IndoorTemplate01.mtl
o IndoorTemplate01

g WallU
v 10 0 -10
v 10 0 10
v -10 0 -10
v -10 0 10
v 10 5 -2
v 10 2 -2
v 10 2 -9.999999
v 10 5 -9.999999
v 10 0 -2
v 10 0 -9.999999
v 10 5 10
v 10 5 0.9999994
v 10 2 10
v 10 2 0.9999994
v 10 0 0.9999994
v -10 5 -10
v 10 5 -10
v -10 5 10
v 12 5 -1.999999
v 10 5 1
v 12 5 1
v -10 5 -1.999999
v -10 5 1

vt 0 2.5
vt 0 12.5
vt 10 2.5
vt 10 12.5
vt 6 -5.960464E-07
vt 6 1.5
vt 10 1.5
vt 10 -9.536743E-07
vt 6 2.5
vt 0 0
vt 4.5 -4.768372E-07
vt 0 1.500001
vt 4.5 1.5
vt 4.500001 2.5
vt 20 -9.536743E-07
vt 20 2.5
vt -10 -9.536743E-07
vt -20 0
vt -10 2.5
vt -20 2.500001
vt -10 12.50002
vt -4 13.50002
vt -4 12.50002
vt -5.5 12.50002
vt -5.5 13.50002
vt -4 2.50002
vt -5.5 2.50002

vn 0 1 0
vn -1 6.357829E-07 -2.384186E-07
vn 0 0 1
vn 1 0 0
vn 0 -1 0
vn 0 0 -1

usemtl BlankWall
f 6/6/2 5/5/2 7/7/2
f 5/5/2 8/8/2 7/7/2
f 9/9/2 6/6/2 10/3/2
f 6/6/2 7/7/2 10/3/2
f 15/14/2 14/13/2 9/9/2
f 14/13/2 6/6/2 9/9/2
f 2/1/2 13/12/2 15/14/2
f 13/12/2 14/13/2 15/14/2
f 13/12/2 11/10/2 14/13/2
f 11/10/2 12/11/2 14/13/2
f 21/25/5 5/23/5 19/22/5
f 21/25/5 20/24/5 5/23/5
f 20/24/5 22/26/5 5/23/5
f 20/24/5 23/27/5 22/26/5
f 18/19/5 23/27/5 20/24/5
f 18/19/5 20/24/5 11/21/5
f 22/26/5 16/1/5 17/2/5
f 22/26/5 17/2/5 5/23/5
f 4/4/1 2/2/1 1/1/1
f 1/1/1 3/3/1 4/4/1
f 1/3/3 17/8/3 16/15/3
f 16/15/3 3/16/3 1/3/3
f 3/20/4 16/18/4 18/17/4
f 18/17/4 4/19/4 3/20/4
f 4/19/6 18/17/6 11/10/6
f 11/10/6 2/1/6 4/19/6

